<svg width="1242" height="1660" viewBox="0 0 1242 1660" fill="none" xmlns="http://www.w3.org/2000/svg">
  <defs>
    <linearGradient id="bg3" x1="70" y1="30" x2="1160" y2="1540" gradientUnits="userSpaceOnUse">
      <stop stop-color="#E8F2F4"/>
      <stop offset="0.54" stop-color="#F8FBFC"/>
      <stop offset="1" stop-color="#E2EEF1"/>
    </linearGradient>
    <linearGradient id="panel3" x1="180" y1="212" x2="1000" y2="1290" gradientUnits="userSpaceOnUse">
      <stop stop-color="#13313A"/>
      <stop offset="1" stop-color="#0C5560"/>
    </linearGradient>
    <filter id="shadow3" x="126" y="166" width="990" height="1220" filterUnits="userSpaceOnUse" color-interpolation-filters="sRGB">
      <feDropShadow dx="0" dy="26" stdDeviation="28" flood-color="#24424A" flood-opacity="0.18"/>
    </filter>
  </defs>

  <rect width="1242" height="1660" rx="48" fill="url(#bg3)"/>
  <path d="M0 0H1242V220C1030 178 818 157 608 157C416 157 214 178 0 220V0Z" fill="#D9E9EC"/>
  <path d="M0 1660H1242V1428C1000 1330 790 1292 584 1292C388 1292 188 1324 0 1412V1660Z" fill="#DAEAEE"/>

  <text x="112" y="132" fill="#0F6F7D" font-family="'Noto Sans SC', 'PingFang SC', sans-serif" font-size="48" font-weight="800">留学宝</text>
  <text x="112" y="186" fill="#5D7078" font-family="'Noto Sans SC', 'PingFang SC', sans-serif" font-size="28" font-weight="600">预算有限也能做选校梯度</text>

  <g filter="url(#shadow3)">
    <rect x="160" y="202" width="922" height="1140" rx="34" fill="url(#panel3)"/>
  </g>

  <rect x="214" y="256" width="236" height="62" rx="18" fill="rgba(255,255,255,0.12)"/>
  <text x="248" y="299" fill="#67D3DF" font-family="'Outfit', 'Noto Sans SC', sans-serif" font-size="28" font-weight="800" letter-spacing="1">BUDGET PLAN</text>

  <text x="214" y="398" fill="white" font-family="'Noto Sans SC', 'PingFang SC', sans-serif" font-size="96" font-weight="900">预算有限</text>
  <text x="214" y="510" fill="#F09A63" font-family="'Noto Sans SC', 'PingFang SC', sans-serif" font-size="96" font-weight="900">怎么选学校</text>

  <text x="214" y="596" fill="rgba(255,255,255,0.82)" font-family="'Noto Sans SC', 'PingFang SC', sans-serif" font-size="34" font-weight="600">不是全冲高排名，而是把钱花在更值的地方。</text>

  <rect x="214" y="674" width="814" height="300" rx="28" fill="rgba(255,255,255,0.92)"/>
  <text x="254" y="738" fill="#0F6F7D" font-family="'Noto Sans SC', 'PingFang SC', sans-serif" font-size="34" font-weight="800">一张图看懂选校梯度</text>
  <rect x="258" y="790" width="214" height="118" rx="22" fill="#D36B31"/>
  <text x="318" y="845" fill="white" font-family="'Noto Sans SC', 'PingFang SC', sans-serif" font-size="34" font-weight="800">冲刺</text>
  <text x="300" y="884" fill="rgba(255,255,255,0.88)" font-family="'Noto Sans SC', 'PingFang SC', sans-serif" font-size="23" font-weight="600">少量保留</text>

  <rect x="514" y="770" width="256" height="148" rx="22" fill="#0F6F7D"/>
  <text x="580" y="834" fill="white" font-family="'Noto Sans SC', 'PingFang SC', sans-serif" font-size="36" font-weight="800">匹配</text>
  <text x="555" y="880" fill="rgba(255,255,255,0.88)" font-family="'Noto Sans SC', 'PingFang SC', sans-serif" font-size="23" font-weight="600">重点投入</text>

  <rect x="810" y="790" width="174" height="118" rx="22" fill="#DDECEF"/>
  <text x="850" y="845" fill="#0F6F7D" font-family="'Noto Sans SC', 'PingFang SC', sans-serif" font-size="34" font-weight="800">保底</text>
  <text x="840" y="884" fill="#4E6870" font-family="'Noto Sans SC', 'PingFang SC', sans-serif" font-size="23" font-weight="600">必须有</text>

  <rect x="214" y="1012" width="390" height="222" rx="26" fill="rgba(255,255,255,0.1)" stroke="rgba(255,255,255,0.18)"/>
  <text x="248" y="1070" fill="#67D3DF" font-family="'Noto Sans SC', 'PingFang SC', sans-serif" font-size="30" font-weight="800">很多人会犯的错</text>
  <text x="248" y="1130" fill="white" font-family="'Noto Sans SC', 'PingFang SC', sans-serif" font-size="26" font-weight="600">预算不高却只盯最热学校</text>
  <text x="248" y="1180" fill="white" font-family="'Noto Sans SC', 'PingFang SC', sans-serif" font-size="26" font-weight="600">申请费和城市成本没算进去</text>

  <rect x="638" y="1012" width="390" height="222" rx="26" fill="rgba(255,255,255,0.94)"/>
  <text x="672" y="1070" fill="#0F6F7D" font-family="'Noto Sans SC', 'PingFang SC', sans-serif" font-size="30" font-weight="800">留学宝会给你</text>
  <text x="672" y="1130" fill="#23343A" font-family="'Noto Sans SC', 'PingFang SC', sans-serif" font-size="26" font-weight="600">预算和排名的平衡方案</text>
  <text x="672" y="1180" fill="#23343A" font-family="'Noto Sans SC', 'PingFang SC', sans-serif" font-size="26" font-weight="600">更适合你的项目组合</text>

  <rect x="214" y="1260" width="814" height="60" rx="18" fill="rgba(255,255,255,0.12)"/>
  <text x="252" y="1301" fill="white" font-family="'Noto Sans SC', 'PingFang SC', sans-serif" font-size="28" font-weight="700">先把定位算清楚，再决定哪些学校值得你花申请费。</text>
</svg>
