<svg width="1024" height="1024" viewBox="0 0 1024 1024" fill="none" xmlns="http://www.w3.org/2000/svg">
  <defs>
    <linearGradient id="premiumBg" x1="170" y1="110" x2="854" y2="912" gradientUnits="userSpaceOnUse">
      <stop stop-color="#12313A"/>
      <stop offset="0.56" stop-color="#0F6F7D"/>
      <stop offset="1" stop-color="#0A5762"/>
    </linearGradient>
    <linearGradient id="premiumLine" x1="354" y1="296" x2="656" y2="704" gradientUnits="userSpaceOnUse">
      <stop stop-color="#FFFFFF"/>
      <stop offset="1" stop-color="#DDF3F6"/>
    </linearGradient>
  </defs>

  <rect width="1024" height="1024" rx="232" fill="url(#premiumBg)"/>
  <rect x="82" y="82" width="860" height="860" rx="198" stroke="rgba(255,255,255,0.14)" stroke-width="4"/>
  <circle cx="770" cy="264" r="26" fill="#D36B31"/>

  <circle cx="512" cy="512" r="266" stroke="rgba(255,255,255,0.16)" stroke-width="10"/>
  <circle cx="512" cy="512" r="204" fill="rgba(255,255,255,0.06)"/>

  <path d="M366 456C366 421.758 393.758 394 428 394H596C630.242 394 658 421.758 658 456V589C658 600.046 649.046 609 638 609H386C374.954 609 366 600.046 366 589V456Z" fill="url(#premiumLine)"/>
  <path d="M386 413L512 474L638 413" stroke="#0F6F7D" stroke-width="22" stroke-linecap="round" stroke-linejoin="round"/>
  <path d="M418 630H606" stroke="rgba(255,255,255,0.92)" stroke-width="22" stroke-linecap="round"/>
  <path d="M462 690H562" stroke="rgba(255,255,255,0.82)" stroke-width="18" stroke-linecap="round"/>
</svg>
